<?xml version="1.0" encoding="utf-8"?>
<!-- Generator: Adobe Illustrator 24.3.0, SVG Export Plug-In . SVG Version: 6.00 Build 0)  -->
<svg version="1.1" id="Capa_1" xmlns="http://www.w3.org/2000/svg" xmlns:xlink="http://www.w3.org/1999/xlink" x="0px" y="0px"
	 viewBox="0 0 62 62" style="enable-background:new 0 0 62 62;" xml:space="preserve">
<style type="text/css">
	.st0{clip-path:url(#SVGID_2_);}
	.st1{fill:#3A3A3A;}
</style>
<g>
	<defs>
		<rect id="SVGID_1_" width="62" height="62"/>
	</defs>
	<clipPath id="SVGID_2_">
		<use xlink:href="#SVGID_1_"  style="overflow:visible;"/>
	</clipPath>
	<g class="st0">
		<path class="st1" d="M60.8,42.4H1.2C0.5,42.4,0,43,0,43.6v16.7c0,0.7,0.5,1.2,1.2,1.2h59.6c0.7,0,1.2-0.5,1.2-1.2V43.6
			C62,43,61.5,42.4,60.8,42.4z M47.3,44.9h5.1V48h-5.1V44.9z M55.3,50.4v3.2h-3.2v-3.2H55.3z M49.7,50.4v3.2h-5.1v-3.2H49.7z
			 M39.8,44.9h5.1V48h-5.1V44.9z M42.1,50.4v3.2H37v-3.2H42.1z M32.2,44.9h5.1V48h-5.1V44.9z M34.6,50.4v3.2h-5.1v-3.2H34.6z
			 M24.6,44.9h5.1V48h-5.1V44.9z M27,50.4v3.2h-5.1v-3.2H27z M17.1,44.9h5.1V48h-5.1V44.9z M19.4,50.4v3.2h-5.1v-3.2H19.4z
			 M9.5,44.9h5.1V48H9.5V44.9z M11.9,50.4v3.2H6.7v-3.2H11.9z M2.4,44.9h4.7V48H2.4V44.9z M2.4,50.4h1.9v3.2H2.4V50.4z M7.1,59.1
			H2.4V56h4.7V59.1z M14.7,59.1H9.5V56h5.1V59.1z M22.2,59.1h-5.1V56h5.1V59.1z M37.4,59.1H24.6V56h12.7V59.1z M44.9,59.1h-5.1V56
			h5.1V59.1z M52.5,59.1h-5.1V56h5.1V59.1z M59.6,59.1h-4.7V56h4.7V59.1z M57.7,53.6v-3.2h1.9v3.2H57.7z M59.6,48h-4.7v-3.2h4.7V48z
			"/>
		<path class="st1" d="M24.7,0.4H1.2C0.5,0.4,0,1,0,1.6V39c0,0.7,0.5,1.2,1.2,1.2h23.5c0.7,0,1.2-0.5,1.2-1.2V1.6
			C25.9,1,25.3,0.4,24.7,0.4z M23.5,37.8h-21V2.9h21V37.8z"/>
		<path class="st1" d="M60.8,0.4H30.2C29.5,0.4,29,1,29,1.6V39c0,0.7,0.5,1.2,1.2,1.2h30.6c0.7,0,1.2-0.5,1.2-1.2V1.6
			C62,1,61.5,0.4,60.8,0.4z M59.6,37.8H31.4V8h28.2V37.8z M59.6,5.6H31.4V2.9h28.2V5.6z"/>
		<path class="st1" d="M19.5,6.5H6.3c-0.7,0-1.2,0.5-1.2,1.2c0,0.7,0.5,1.2,1.2,1.2h13.2c0.7,0,1.2-0.5,1.2-1.2
			C20.8,7.1,20.2,6.5,19.5,6.5z"/>
		<path class="st1" d="M12.9,11.6H6.3c-0.7,0-1.2,0.5-1.2,1.2c0,0.7,0.5,1.2,1.2,1.2h6.6c0.7,0,1.2-0.5,1.2-1.2
			C14.2,12.1,13.6,11.6,12.9,11.6z"/>
		<path class="st1" d="M19.5,16.6H6.3c-0.7,0-1.2,0.5-1.2,1.2S5.7,19,6.3,19h13.2c0.7,0,1.2-0.5,1.2-1.2
			C20.8,17.1,20.2,16.6,19.5,16.6z"/>
		<path class="st1" d="M12.9,21.6H6.3c-0.7,0-1.2,0.5-1.2,1.2c0,0.7,0.5,1.2,1.2,1.2h6.6c0.7,0,1.2-0.5,1.2-1.2
			C14.2,22.2,13.6,21.6,12.9,21.6z"/>
		<path class="st1" d="M19.5,26.7H6.3c-0.7,0-1.2,0.5-1.2,1.2s0.5,1.2,1.2,1.2h13.2c0.7,0,1.2-0.5,1.2-1.2
			C20.8,27.2,20.2,26.7,19.5,26.7z"/>
		<path class="st1" d="M12.9,31.7H6.3c-0.7,0-1.2,0.5-1.2,1.2c0,0.7,0.5,1.2,1.2,1.2h6.6c0.7,0,1.2-0.5,1.2-1.2
			C14.2,32.2,13.6,31.7,12.9,31.7z"/>
		<path class="st1" d="M36.8,22.3l3.8-3.8c0.5-0.5,0.5-1.2,0-1.7c-0.5-0.5-1.2-0.5-1.7,0l-4.7,4.7c-0.5,0.5-0.5,1.2,0,1.7l4.7,4.7
			c0.2,0.2,0.5,0.4,0.9,0.4s0.6-0.1,0.9-0.4c0.5-0.5,0.5-1.2,0-1.7L36.8,22.3z"/>
		<path class="st1" d="M56.8,21.5l-4.7-4.7c-0.5-0.5-1.2-0.5-1.7,0c-0.5,0.5-0.5,1.2,0,1.7l3.8,3.8l-3.8,3.8c-0.5,0.5-0.5,1.2,0,1.7
			c0.2,0.2,0.5,0.4,0.9,0.4s0.6-0.1,0.9-0.4l4.7-4.7C57.3,22.7,57.3,22,56.8,21.5z"/>
		<path class="st1" d="M47.2,13.4c-0.6-0.2-1.3,0.2-1.5,0.9l-2.9,11.5c-0.2,0.6,0.2,1.3,0.9,1.5c0.1,0,0.2,0,0.3,0
			c0.5,0,1-0.4,1.2-0.9l2.9-11.5C48.3,14.2,47.9,13.6,47.2,13.4z"/>
	</g>
</g>
</svg>
