<svg width="62" height="62" viewBox="0 0 62 62" fill="none" xmlns="http://www.w3.org/2000/svg">
<g clip-path="url(#clip0_67_1379)">
<path d="M44.8989 4.42853H17.1011C16.5367 4.42853 16.0791 4.88614 16.0791 5.45056V49.4638C16.0791 50.0283 16.5367 50.4858 17.1011 50.4858H44.8989C45.4633 50.4858 45.9209 50.0282 45.9209 49.4638V5.45056C45.9209 4.88614 45.4633 4.42853 44.8989 4.42853ZM25.2135 48.4417H18.123V44.8675H25.2135V48.4417ZM34.7425 48.4417H27.2576V44.8675H34.7425V48.4417ZM43.877 48.4417H36.7865V44.8675H43.877V48.4417ZM43.877 42.8236H18.1231V18.4719H19.0499C19.5299 21.0031 21.7573 22.9237 24.4261 22.9237C27.0948 22.9237 29.3222 21.0031 29.8024 18.4719H43.8771V42.8236H43.877ZM20.9966 17.4503C20.9966 15.5595 22.5349 14.021 24.4259 14.021C26.3168 14.021 27.8553 15.5593 27.8553 17.4503C27.8553 19.3412 26.3169 20.8797 24.4259 20.8797C22.5351 20.8797 20.9966 19.3412 20.9966 17.4503ZM43.877 16.4279H29.802C29.3216 13.8971 27.0944 11.9771 24.4258 11.9771C21.7573 11.9771 19.5301 13.8971 19.0497 16.4279H18.123V11.2104H43.8769L43.877 16.4279ZM43.877 9.16644H18.1231V6.47259H43.877V9.16644Z" fill="black"/>
<path d="M28.8198 51.2795C28.2554 51.2795 27.7978 51.7371 27.7978 52.3015V55.5276H20.7073V52.8732C20.7073 52.3088 20.2497 51.8512 19.6852 51.8512C19.1208 51.8512 18.6632 52.3088 18.6632 52.8732V55.5274H11.1784V51.9531H13.9347C14.4992 51.9531 14.9568 51.4955 14.9568 50.9311C14.9568 50.3667 14.4992 49.909 13.9347 49.909H2.04394V25.5575H13.9347C14.4992 25.5575 14.9568 25.0998 14.9568 24.5354C14.9568 23.971 14.4992 23.5134 13.9347 23.5134H2.04394V18.2961H13.9347C14.4992 18.2961 14.9568 17.8385 14.9568 17.274C14.9568 16.7096 14.4992 16.252 13.9347 16.252H2.04394V13.5582H13.9347C14.4992 13.5582 14.9568 13.1005 14.9568 12.5361C14.9568 11.9717 14.4992 11.5141 13.9347 11.5141H1.02203C0.457613 11.5141 0 11.9716 0 12.5361V56.5493C0 57.1138 0.457613 57.5714 1.02203 57.5714H28.8198C29.3842 57.5714 29.8419 57.1138 29.8419 56.5493V52.3016C29.8417 51.7371 29.3841 51.2795 28.8198 51.2795ZM9.13446 55.5274H2.04394V51.9531H9.13446V55.5274Z" fill="black"/>
<path d="M60.978 11.5143H48.0653C47.5008 11.5143 47.0432 11.972 47.0432 12.5364C47.0432 13.1008 47.5008 13.5584 48.0653 13.5584H59.9561V16.2523H48.0653C47.5008 16.2523 47.0432 16.7099 47.0432 17.2743C47.0432 17.8387 47.5008 18.2963 48.0653 18.2963H59.9561V23.5139H48.0653C47.5008 23.5139 47.0432 23.9715 47.0432 24.5359C47.0432 25.1003 47.5008 25.5579 48.0653 25.5579H59.9561V49.9097H48.0653C47.5008 49.9097 47.0432 50.3673 47.0432 50.9317C47.0432 51.4961 47.5008 51.9537 48.0653 51.9537H50.8216V55.528H43.3367V52.8732C43.3367 52.3088 42.8791 51.8512 42.3146 51.8512C41.7502 51.8512 41.2926 52.3088 41.2926 52.8732V55.5274H34.2021V52.3015C34.2021 51.7371 33.7445 51.2795 33.1801 51.2795C32.6156 51.2795 32.158 51.7371 32.158 52.3015V56.5494C32.158 57.1138 32.6156 57.5714 33.1801 57.5714H60.978C61.5424 57.5714 62 57.1138 62 56.5494V12.5363C62 11.9717 61.5424 11.5143 60.978 11.5143ZM59.9561 55.5274H52.8655V51.9531H59.9561V55.5274Z" fill="black"/>
<path d="M41.3874 21.6445H31.7633C31.1988 21.6445 30.7412 22.1021 30.7412 22.6666C30.7412 23.231 31.1988 23.6886 31.7633 23.6886H41.3874C41.9518 23.6886 42.4095 23.231 42.4095 22.6666C42.4095 22.1021 41.9518 21.6445 41.3874 21.6445Z" fill="black"/>
<path d="M41.3389 25.8994H20.661C20.0966 25.8994 19.639 26.357 19.639 26.9214C19.639 27.4859 20.0966 27.9435 20.661 27.9435H41.3389C41.9033 27.9435 42.3609 27.4859 42.3609 26.9214C42.3609 26.357 41.9033 25.8994 41.3389 25.8994Z" fill="black"/>
<path d="M41.3389 30.1544H20.661C20.0966 30.1544 19.639 30.612 19.639 31.1765C19.639 31.7409 20.0966 32.1985 20.661 32.1985H41.3389C41.9033 32.1985 42.3609 31.7409 42.3609 31.1765C42.3609 30.6119 41.9033 30.1544 41.3389 30.1544Z" fill="black"/>
<path d="M41.3389 34.4093H20.661C20.0966 34.4093 19.639 34.8669 19.639 35.4313C19.639 35.9958 20.0966 36.4534 20.661 36.4534H41.3389C41.9033 36.4534 42.3609 35.9958 42.3609 35.4313C42.3609 34.8669 41.9033 34.4093 41.3389 34.4093Z" fill="black"/>
<path d="M57.4666 28.7301H48.0653C47.5008 28.7301 47.0432 29.1877 47.0432 29.7521C47.0432 30.3166 47.5008 30.7742 48.0653 30.7742H57.4666C58.031 30.7742 58.4886 30.3166 58.4886 29.7521C58.4886 29.1877 58.031 28.7301 57.4666 28.7301Z" fill="black"/>
<path d="M57.4179 32.985H48.0653C47.5008 32.985 47.0432 33.4426 47.0432 34.007C47.0432 34.5714 47.5008 35.029 48.0653 35.029H57.4179C57.9824 35.029 58.44 34.5714 58.44 34.007C58.44 33.4426 57.9824 32.985 57.4179 32.985Z" fill="black"/>
<path d="M57.4179 37.24H52.765C52.2006 37.24 51.743 37.6976 51.743 38.262C51.743 38.8264 52.2006 39.2841 52.765 39.2841H57.4179C57.9824 39.2841 58.44 38.8264 58.44 38.262C58.44 37.6976 57.9824 37.24 57.4179 37.24Z" fill="black"/>
<path d="M13.9347 28.7301H4.53338C3.96897 28.7301 3.51135 29.1877 3.51135 29.7521C3.51135 30.3166 3.96897 30.7742 4.53338 30.7742H13.9347C14.4992 30.7742 14.9568 30.3166 14.9568 29.7521C14.9568 29.1877 14.4992 28.7301 13.9347 28.7301Z" fill="black"/>
<path d="M13.9347 32.985H4.58183C4.01741 32.985 3.5598 33.4426 3.5598 34.007C3.5598 34.5714 4.01741 35.029 4.58183 35.029H13.9346C14.499 35.029 14.9567 34.5714 14.9567 34.007C14.9567 33.4426 14.4992 32.985 13.9347 32.985Z" fill="black"/>
</g>
<defs>
<clipPath id="clip0_67_1379">
<rect width="62" height="62" fill="white"/>
</clipPath>
</defs>
</svg>
