<?xml version="1.0" encoding="utf-8"?>
<!-- Generator: Adobe Illustrator 24.3.0, SVG Export Plug-In . SVG Version: 6.00 Build 0)  -->
<svg version="1.1" id="Capa_1" xmlns="http://www.w3.org/2000/svg" xmlns:xlink="http://www.w3.org/1999/xlink" x="0px" y="0px"
	 viewBox="0 0 62 62" style="enable-background:new 0 0 62 62;" xml:space="preserve">
<style type="text/css">
	.st0{clip-path:url(#SVGID_2_);}
	.st1{fill:#3A3A3A;}
</style>
<g>
	<defs>
		<rect id="SVGID_1_" width="62" height="62"/>
	</defs>
	<clipPath id="SVGID_2_">
		<use xlink:href="#SVGID_1_"  style="overflow:visible;"/>
	</clipPath>
	<g class="st0">
		<path class="st1" d="M44.9,4.4H17.1c-0.6,0-1,0.5-1,1v44c0,0.6,0.5,1,1,1h27.8c0.6,0,1-0.5,1-1v-44C45.9,4.9,45.5,4.4,44.9,4.4z
			 M25.2,48.4h-7.1v-3.6h7.1V48.4z M34.7,48.4h-7.5v-3.6h7.5V48.4z M43.9,48.4h-7.1v-3.6h7.1V48.4z M43.9,42.8H18.1V18.5H19
			c0.5,2.5,2.7,4.5,5.4,4.5c2.7,0,4.9-1.9,5.4-4.5h14.1L43.9,42.8L43.9,42.8z M21,17.5c0-1.9,1.5-3.4,3.4-3.4c1.9,0,3.4,1.5,3.4,3.4
			c0,1.9-1.5,3.4-3.4,3.4C22.5,20.9,21,19.3,21,17.5z M43.9,16.4H29.8c-0.5-2.5-2.7-4.5-5.4-4.5c-2.7,0-4.9,1.9-5.4,4.5h-0.9v-5.2
			h25.8L43.9,16.4z M43.9,9.2H18.1V6.5h25.8V9.2z"/>
		<path class="st1" d="M28.8,51.3c-0.6,0-1,0.5-1,1v3.2h-7.1v-2.7c0-0.6-0.5-1-1-1c-0.6,0-1,0.5-1,1v2.7h-7.5V52h2.8
			c0.6,0,1-0.5,1-1s-0.5-1-1-1H2V25.6h11.9c0.6,0,1-0.5,1-1s-0.5-1-1-1H2v-5.2h11.9c0.6,0,1-0.5,1-1c0-0.6-0.5-1-1-1H2v-2.7h11.9
			c0.6,0,1-0.5,1-1c0-0.6-0.5-1-1-1H1c-0.6,0-1,0.5-1,1v44c0,0.6,0.5,1,1,1h27.8c0.6,0,1-0.5,1-1v-4.2
			C29.8,51.7,29.4,51.3,28.8,51.3z M9.1,55.5H2V52h7.1V55.5z"/>
		<path class="st1" d="M61,11.5H48.1c-0.6,0-1,0.5-1,1s0.5,1,1,1H60v2.7H48.1c-0.6,0-1,0.5-1,1s0.5,1,1,1H60v5.2H48.1
			c-0.6,0-1,0.5-1,1s0.5,1,1,1H60v24.4H48.1c-0.6,0-1,0.5-1,1c0,0.6,0.5,1,1,1h2.8v3.6h-7.5v-2.7c0-0.6-0.5-1-1-1c-0.6,0-1,0.5-1,1
			v2.7h-7.1v-3.2c0-0.6-0.5-1-1-1c-0.6,0-1,0.5-1,1v4.2c0,0.6,0.5,1,1,1H61c0.6,0,1-0.5,1-1v-44C62,12,61.5,11.5,61,11.5z M60,55.5
			h-7.1V52H60V55.5z"/>
		<path class="st1" d="M41.4,21.6h-9.6c-0.6,0-1,0.5-1,1c0,0.6,0.5,1,1,1h9.6c0.6,0,1-0.5,1-1C42.4,22.1,42,21.6,41.4,21.6z"/>
		<path class="st1" d="M41.3,25.9H20.7c-0.6,0-1,0.5-1,1c0,0.6,0.5,1,1,1h20.7c0.6,0,1-0.5,1-1C42.4,26.4,41.9,25.9,41.3,25.9z"/>
		<path class="st1" d="M41.3,30.2H20.7c-0.6,0-1,0.5-1,1c0,0.6,0.5,1,1,1h20.7c0.6,0,1-0.5,1-1C42.4,30.6,41.9,30.2,41.3,30.2z"/>
		<path class="st1" d="M41.3,34.4H20.7c-0.6,0-1,0.5-1,1c0,0.6,0.5,1,1,1h20.7c0.6,0,1-0.5,1-1C42.4,34.9,41.9,34.4,41.3,34.4z"/>
		<path class="st1" d="M57.5,28.7h-9.4c-0.6,0-1,0.5-1,1c0,0.6,0.5,1,1,1h9.4c0.6,0,1-0.5,1-1C58.5,29.2,58,28.7,57.5,28.7z"/>
		<path class="st1" d="M57.4,33h-9.4c-0.6,0-1,0.5-1,1s0.5,1,1,1h9.4c0.6,0,1-0.5,1-1S58,33,57.4,33z"/>
		<path class="st1" d="M57.4,37.2h-4.7c-0.6,0-1,0.5-1,1s0.5,1,1,1h4.7c0.6,0,1-0.5,1-1S58,37.2,57.4,37.2z"/>
		<path class="st1" d="M13.9,28.7H4.5c-0.6,0-1,0.5-1,1c0,0.6,0.5,1,1,1h9.4c0.6,0,1-0.5,1-1C15,29.2,14.5,28.7,13.9,28.7z"/>
		<path class="st1" d="M13.9,33H4.6c-0.6,0-1,0.5-1,1s0.5,1,1,1h9.4c0.6,0,1-0.5,1-1S14.5,33,13.9,33z"/>
	</g>
</g>
</svg>
