<svg width="62" height="62" viewBox="0 0 62 62" fill="none" xmlns="http://www.w3.org/2000/svg">
<g clip-path="url(#clip0_67_1335)">
<path d="M61.678 34.166L58.7849 31.2728C58.5785 31.0664 58.2988 30.9505 58.0069 30.9505C57.7151 30.9505 57.4355 31.0664 57.229 31.2728L56.3982 32.1037L54.9959 30.7015C54.4062 30.1117 53.9975 29.3856 53.875 28.7093C53.4891 26.5801 51.6524 24.5772 49.5078 23.9471L37.7957 20.5057V11.4955C37.7957 10.8879 37.3034 10.3954 36.6957 10.3954H28.975C28.3674 10.3954 27.875 10.8879 27.875 11.4955V50.5046C27.875 51.1121 28.3674 51.6046 28.975 51.6046H37.0584V58.3443H19.5961C18.9884 58.3443 18.496 58.8368 18.496 59.4443C18.496 60.0519 18.9884 60.5443 19.5961 60.5443H38.1584C38.7661 60.5443 39.2584 60.0519 39.2584 59.4443V50.5047C39.2584 49.8972 38.7661 49.4047 38.1584 49.4047H30.075V12.5954H35.5958V21.3289C35.5958 21.3322 35.5963 21.3353 35.5963 21.3387C35.5963 21.3489 35.5975 21.3589 35.5978 21.3692C35.5991 21.4052 35.6019 21.4406 35.6066 21.4754C35.6082 21.4873 35.61 21.499 35.6121 21.5109C35.6187 21.5506 35.6272 21.5899 35.638 21.6281C35.6389 21.6318 35.6393 21.6355 35.6405 21.6391L35.6435 21.6497C35.6445 21.6529 35.6454 21.6561 35.6463 21.6594L39.3139 34.1411C39.9441 36.2859 41.947 38.1225 44.0762 38.5081C44.7522 38.6306 45.4786 39.0393 46.0683 39.6291L47.4706 41.0315L46.6396 41.8624C46.2101 42.292 46.2101 42.9884 46.6396 43.4179L49.5327 46.3111C49.739 46.5174 50.0187 46.6333 50.3106 46.6333C50.6024 46.6333 50.882 46.5174 51.0885 46.3111L61.678 35.7215C61.8843 35.5153 62.0001 35.2355 62.0001 34.9437C62.0001 34.652 61.8843 34.3722 61.678 34.166ZM44.4685 36.3436C43.1571 36.106 41.8201 34.8661 41.4247 33.5209L38.9666 25.1551L43.3761 29.5646C43.1969 29.9617 43.0995 30.3942 43.0995 30.8429C43.0995 31.6737 43.4232 32.4549 44.0107 33.0423C44.5982 33.6299 45.3793 33.9534 46.2102 33.9534C47.041 33.9534 47.8222 33.6299 48.4096 33.0423C48.9971 32.4548 49.3208 31.6737 49.3208 30.8429C49.3208 30.0121 48.9971 29.2309 48.4096 28.6435C47.8221 28.0559 47.041 27.7324 46.2102 27.7324C45.7616 27.7324 45.3288 27.8296 44.9319 28.0088L40.5225 23.5994L48.888 26.0575C50.2332 26.4528 51.4731 27.7899 51.7107 29.1013C51.9141 30.224 52.5284 31.3447 53.4407 32.2569L54.843 33.6592L49.0265 39.4757L47.6242 38.0734C46.7118 37.1615 45.5912 36.5469 44.4685 36.3436ZM45.2995 30.843C45.2995 30.5999 45.3942 30.3712 45.5662 30.1992C45.7381 30.0273 45.9669 29.9325 46.2101 29.9325C46.4532 29.9325 46.682 30.0272 46.8539 30.1992C47.026 30.3712 47.1207 30.5999 47.1207 30.843C47.1207 31.0862 47.026 31.3148 46.8539 31.4869C46.6821 31.6587 46.4534 31.7535 46.2101 31.7535C45.9668 31.7535 45.7382 31.6588 45.5662 31.4869C45.3942 31.3149 45.2995 31.0863 45.2995 30.843ZM50.3106 43.9777L48.9732 42.6401L58.0072 33.6061L59.3448 34.9437L50.3106 43.9777Z" fill="black"/>
<path d="M45.6355 1.45578H1.10002C0.492368 1.45578 0 1.94827 0 2.5558V21.329C0 21.9365 0.492368 22.429 1.10002 22.429H10.0397C10.6473 22.429 11.1397 21.9365 11.1397 21.329V12.5955H16.7416V49.4046H8.57685C7.9692 49.4046 7.47683 49.8971 7.47683 50.5047V59.4443C7.47683 60.0518 7.9692 60.5443 8.57685 60.5443H14.0229C14.6306 60.5443 15.1229 60.0518 15.1229 59.4443C15.1229 58.8368 14.6306 58.3443 14.0229 58.3443H9.67674V51.6046H17.8414C18.449 51.6046 18.9414 51.1121 18.9414 50.5045V11.4954C18.9414 10.8879 18.449 10.3954 17.8414 10.3954H10.0395C9.43189 10.3954 8.93952 10.8879 8.93952 11.4954V20.229H2.19991V3.65582H44.5355V6.97379C44.5355 7.58132 45.0278 8.07381 45.6355 8.07381C46.2431 8.07381 46.7355 7.58132 46.7355 6.97379V2.5558C46.7354 1.94827 46.2431 1.45578 45.6355 1.45578Z" fill="black"/>
</g>
<defs>
<clipPath id="clip0_67_1335">
<rect width="62" height="62" fill="white"/>
</clipPath>
</defs>
</svg>
