<?xml version="1.0" encoding="utf-8"?>
<!-- Generator: Adobe Illustrator 24.3.0, SVG Export Plug-In . SVG Version: 6.00 Build 0)  -->
<svg version="1.1" id="Capa_1" xmlns="http://www.w3.org/2000/svg" xmlns:xlink="http://www.w3.org/1999/xlink" x="0px" y="0px"
	 viewBox="0 0 62 62" style="enable-background:new 0 0 62 62;" xml:space="preserve">
<style type="text/css">
	.st0{clip-path:url(#SVGID_2_);}
	.st1{fill:#3A3A3A;}
</style>
<g>
	<defs>
		<rect id="SVGID_1_" width="62" height="62"/>
	</defs>
	<clipPath id="SVGID_2_">
		<use xlink:href="#SVGID_1_"  style="overflow:visible;"/>
	</clipPath>
	<g class="st0">
		<path class="st1" d="M61.7,34.2l-2.9-2.9C58.6,31.1,58.3,31,58,31c-0.3,0-0.6,0.1-0.8,0.3l-0.8,0.8L55,30.7c-0.6-0.6-1-1.3-1.1-2
			c-0.4-2.1-2.2-4.1-4.4-4.8l-11.7-3.4v-9c0-0.6-0.5-1.1-1.1-1.1H29c-0.6,0-1.1,0.5-1.1,1.1v39c0,0.6,0.5,1.1,1.1,1.1h8.1v6.7H19.6
			c-0.6,0-1.1,0.5-1.1,1.1c0,0.6,0.5,1.1,1.1,1.1h18.6c0.6,0,1.1-0.5,1.1-1.1v-8.9c0-0.6-0.5-1.1-1.1-1.1h-8.1V12.6h5.5v8.7
			c0,0,0,0,0,0c0,0,0,0,0,0c0,0,0,0.1,0,0.1c0,0,0,0,0,0c0,0,0,0.1,0,0.1c0,0,0,0,0,0l0,0c0,0,0,0,0,0l3.7,12.5
			c0.6,2.1,2.6,4,4.8,4.4c0.7,0.1,1.4,0.5,2,1.1l1.4,1.4l-0.8,0.8c-0.4,0.4-0.4,1.1,0,1.6l2.9,2.9c0.2,0.2,0.5,0.3,0.8,0.3
			c0.3,0,0.6-0.1,0.8-0.3l10.6-10.6c0.2-0.2,0.3-0.5,0.3-0.8C62,34.7,61.9,34.4,61.7,34.2z M44.5,36.3c-1.3-0.2-2.6-1.5-3-2.8
			L39,25.2l4.4,4.4c-0.2,0.4-0.3,0.8-0.3,1.3c0,0.8,0.3,1.6,0.9,2.2c0.6,0.6,1.4,0.9,2.2,0.9c0.8,0,1.6-0.3,2.2-0.9
			c0.6-0.6,0.9-1.4,0.9-2.2c0-0.8-0.3-1.6-0.9-2.2c-0.6-0.6-1.4-0.9-2.2-0.9c-0.4,0-0.9,0.1-1.3,0.3l-4.4-4.4l8.4,2.5
			c1.3,0.4,2.6,1.7,2.8,3c0.2,1.1,0.8,2.2,1.7,3.2l1.4,1.4L49,39.5l-1.4-1.4C46.7,37.2,45.6,36.5,44.5,36.3z M45.3,30.8
			c0-0.2,0.1-0.5,0.3-0.6c0.2-0.2,0.4-0.3,0.6-0.3c0.2,0,0.5,0.1,0.6,0.3c0.2,0.2,0.3,0.4,0.3,0.6c0,0.2-0.1,0.5-0.3,0.6
			c-0.2,0.2-0.4,0.3-0.6,0.3c-0.2,0-0.5-0.1-0.6-0.3C45.4,31.3,45.3,31.1,45.3,30.8z M50.3,44L49,42.6l9-9l1.3,1.3L50.3,44z"/>
		<path class="st1" d="M45.6,1.5H1.1C0.5,1.5,0,1.9,0,2.6v18.8c0,0.6,0.5,1.1,1.1,1.1H10c0.6,0,1.1-0.5,1.1-1.1v-8.7h5.6v36.8H8.6
			c-0.6,0-1.1,0.5-1.1,1.1v8.9c0,0.6,0.5,1.1,1.1,1.1H14c0.6,0,1.1-0.5,1.1-1.1c0-0.6-0.5-1.1-1.1-1.1H9.7v-6.7h8.2
			c0.6,0,1.1-0.5,1.1-1.1v-39c0-0.6-0.5-1.1-1.1-1.1H10c-0.6,0-1.1,0.5-1.1,1.1v8.7H2.2V3.7h42.3V7c0,0.6,0.5,1.1,1.1,1.1
			c0.6,0,1.1-0.5,1.1-1.1V2.6C46.7,1.9,46.2,1.5,45.6,1.5z"/>
	</g>
</g>
</svg>
