<svg id="Capa_1" data-name="Capa 1" xmlns="http://www.w3.org/2000/svg" viewBox="0 0 238.01 158.38"><defs><style>.cls-1{fill:#f4f4f4;}</style></defs><path class="cls-1" d="M65.3,54.26V39.93c0-1.76-.3-3-.91-3.6a4.06,4.06,0,0,0-3-1,4.46,4.46,0,0,0-2,.45A4.32,4.32,0,0,0,57.83,37a5.47,5.47,0,0,0-.92,1.78,7.73,7.73,0,0,0-.3,2.19V54.26H50.5V22.68h6.11V34.15a4.73,4.73,0,0,1,1-1.44,6.76,6.76,0,0,1,1.57-1.15,9.68,9.68,0,0,1,2-.75,8.78,8.78,0,0,1,2.25-.28,8.52,8.52,0,0,1,5.81,1.95,6.82,6.82,0,0,1,2.23,5.43V54.26Z" transform="translate(-2.89 -2.84)"/><path class="cls-1" d="M79.5,44.3A6.57,6.57,0,0,0,81,48.48,4.65,4.65,0,0,0,84.67,50a5.05,5.05,0,0,0,2.65-.68,3.07,3.07,0,0,0,1.48-1.9h6.3A10.14,10.14,0,0,1,91.34,53,10.7,10.7,0,0,1,85,54.87q-11.57,0-11.56-12.59a14.68,14.68,0,0,1,.75-4.84,10.47,10.47,0,0,1,2.18-3.71,9.47,9.47,0,0,1,3.51-2.38,12.69,12.69,0,0,1,4.74-.82c3.57,0,6.28,1.14,8.11,3.43s2.75,5.73,2.75,10.34Zm9.63-3.85a6.37,6.37,0,0,0-.45-2.24,4.5,4.5,0,0,0-1.05-1.59,4,4,0,0,0-1.51-.94,4.91,4.91,0,0,0-1.74-.31,4.34,4.34,0,0,0-3.17,1.34,5.76,5.76,0,0,0-1.53,3.74Z" transform="translate(-2.89 -2.84)"/><path class="cls-1" d="M50.92,102.26,46.08,82l-4.93,20.3H35L26.2,71.06h7l5.12,20.21L42.6,71.06h6.86l4.75,20.21,5.08-20.21H66l-8.74,31.2Z" transform="translate(-2.89 -2.84)"/><path class="cls-1" d="M67.46,76.37V70.68h6.12v5.69Zm0,25.89V79.14h6.12v23.12Z" transform="translate(-2.89 -2.84)"/><path class="cls-1" d="M76.16,102.26V79.14h5.73v2.77a7.51,7.51,0,0,1,1.58-1.83,6.59,6.59,0,0,1,3.45-1.46c.6-.06,1.21-.09,1.84-.09h.79v6.25a10.61,10.61,0,0,0-1.69-.14q-5.6,0-5.59,5.59v12Z" transform="translate(-2.89 -2.84)"/><path class="cls-1" d="M95.34,92.3a6.57,6.57,0,0,0,1.52,4.18A4.65,4.65,0,0,0,100.51,98a5.05,5.05,0,0,0,2.65-.68,3.07,3.07,0,0,0,1.48-1.9h6.3a10.14,10.14,0,0,1-3.76,5.5,10.7,10.7,0,0,1-6.39,1.92q-11.57,0-11.56-12.59A14.68,14.68,0,0,1,90,85.44a10.47,10.47,0,0,1,2.18-3.71,9.51,9.51,0,0,1,3.5-2.38,12.78,12.78,0,0,1,4.75-.82c3.57,0,6.28,1.14,8.11,3.43s2.75,5.73,2.75,10.34ZM105,88.45a6.37,6.37,0,0,0-.45-2.24,4.64,4.64,0,0,0-1-1.59,4,4,0,0,0-1.51-.94,4.91,4.91,0,0,0-1.74-.31,4.34,4.34,0,0,0-3.17,1.34,5.76,5.76,0,0,0-1.53,3.74Z" transform="translate(-2.89 -2.84)"/><path class="cls-1" d="M113.76,102.26V83.46h-3.43V79.14h3.43q0-8.46,9.82-8.46v4.94a8.9,8.9,0,0,0-1.9.16,2.22,2.22,0,0,0-1.15.59,2.3,2.3,0,0,0-.59,1.1,7.22,7.22,0,0,0-.17,1.67h4v4.32h-4v18.8Z" transform="translate(-2.89 -2.84)"/><path class="cls-1" d="M124.94,102.26V79.14h5.74v2.77a7.49,7.49,0,0,1,1.57-1.83,6.68,6.68,0,0,1,1.7-1,6.42,6.42,0,0,1,1.76-.45,18.09,18.09,0,0,1,1.83-.09h.8v6.25a10.7,10.7,0,0,0-1.69-.14q-5.6,0-5.6,5.59v12Z" transform="translate(-2.89 -2.84)"/><path class="cls-1" d="M153.38,102.26a9.59,9.59,0,0,1-.38-2.06,7.63,7.63,0,0,1-2.86,2,11,11,0,0,1-4.14.72c-2.66,0-4.61-.58-5.85-1.76a6,6,0,0,1-1.86-4.58,8.42,8.42,0,0,1,.8-4,6,6,0,0,1,2.21-2.33A10.58,10.58,0,0,1,144.66,89c1.3-.27,2.72-.51,4.25-.73a8.29,8.29,0,0,0,3.11-.87,2.15,2.15,0,0,0-.26-3.53,5.55,5.55,0,0,0-2.85-.63,4.09,4.09,0,0,0-3,.94,4.45,4.45,0,0,0-1.15,2.49H139a10.74,10.74,0,0,1,.59-3.29,6.29,6.29,0,0,1,1.74-2.58,8,8,0,0,1,3.13-1.67,16.31,16.31,0,0,1,4.7-.59,15.24,15.24,0,0,1,4.63.61,7.56,7.56,0,0,1,3,1.76,6.79,6.79,0,0,1,1.67,2.87,13.59,13.59,0,0,1,.52,3.88v14.61ZM153,90.94a3.41,3.41,0,0,1-1.37.75,24.11,24.11,0,0,1-2.58.61,8.71,8.71,0,0,0-3.62,1.32,2.78,2.78,0,0,0-1,2.3c0,1.72,1,2.58,3,2.58a5.8,5.8,0,0,0,2.19-.4,5.31,5.31,0,0,0,2.91-2.67,4.42,4.42,0,0,0,.45-2Z" transform="translate(-2.89 -2.84)"/><path class="cls-1" d="M188.63,102.26v-14a5.54,5.54,0,0,0-1-3.43A3.12,3.12,0,0,0,185,83.51a3.42,3.42,0,0,0-2.8,1.41,5.59,5.59,0,0,0-1.1,3.53v13.81H175V88.35a11.11,11.11,0,0,0-.19-2.3,3.07,3.07,0,0,0-.63-1.41,2.34,2.34,0,0,0-1.16-.73,5.9,5.9,0,0,0-1.69-.21q-3.71,0-3.71,4.51v14.05h-6.11V79.14h5.73v3.38a7,7,0,0,1,2.82-3.15,8.62,8.62,0,0,1,3.95-.84,10.13,10.13,0,0,1,2.09.19,5,5,0,0,1,1.65.63,7,7,0,0,1,1.39,1.15,14.19,14.19,0,0,1,1.31,1.7,6.2,6.2,0,0,1,2.49-2.8,7.6,7.6,0,0,1,3.76-.87,8.52,8.52,0,0,1,3.2.59,7.25,7.25,0,0,1,2.49,1.64,7.83,7.83,0,0,1,2.21,5.48v16Z" transform="translate(-2.89 -2.84)"/><path class="cls-1" d="M202.63,92.3a6.63,6.63,0,0,0,1.53,4.18A4.64,4.64,0,0,0,207.8,98a5.06,5.06,0,0,0,2.66-.68,3.07,3.07,0,0,0,1.48-1.9h6.3a10.2,10.2,0,0,1-3.76,5.5,10.7,10.7,0,0,1-6.39,1.92q-11.57,0-11.57-12.59a14.67,14.67,0,0,1,.76-4.84,10.47,10.47,0,0,1,2.18-3.71,9.43,9.43,0,0,1,3.5-2.38,12.75,12.75,0,0,1,4.75-.82c3.57,0,6.28,1.14,8.11,3.43s2.75,5.73,2.75,10.34Zm9.64-3.85a6.37,6.37,0,0,0-.45-2.24,4.64,4.64,0,0,0-1-1.59,4,4,0,0,0-1.51-.94,4.91,4.91,0,0,0-1.74-.31,4.34,4.34,0,0,0-3.17,1.34,5.76,5.76,0,0,0-1.53,3.74Z" transform="translate(-2.89 -2.84)"/><path class="cls-1" d="M234.36,86.14a3.39,3.39,0,0,0-1.2-2.32,4.82,4.82,0,0,0-2.94-.73,7.17,7.17,0,0,0-2.84.44,1.56,1.56,0,0,0-1,1.53,1.71,1.71,0,0,0,1,1.51,12.8,12.8,0,0,0,2.8,1.08l5.07,1.43a12.41,12.41,0,0,1,3.32,1.39,4.63,4.63,0,0,1,1.78,2,8,8,0,0,1,.54,3.22,6.31,6.31,0,0,1-2.58,5.15q-2.59,2-7.66,2a16.65,16.65,0,0,1-4.52-.56,10.59,10.59,0,0,1-3.45-1.62,7.23,7.23,0,0,1-3-5.85H226a2.91,2.91,0,0,0,1.29,2.54,5.83,5.83,0,0,0,3.36.89,7.45,7.45,0,0,0,3-.54,1.78,1.78,0,0,0,1.25-1.67,2,2,0,0,0-.92-1.83,9.34,9.34,0,0,0-2.79-1,37.79,37.79,0,0,1-5.46-1.57,11.89,11.89,0,0,1-3.22-1.81,5.07,5.07,0,0,1-1.55-2.17,8.3,8.3,0,0,1-.4-2.63,5.9,5.9,0,0,1,.54-2.49,5.59,5.59,0,0,1,1.72-2.07,9.27,9.27,0,0,1,3.06-1.43,16.82,16.82,0,0,1,4.6-.54q5,0,7.29,2a7.76,7.76,0,0,1,2.53,5.59Z" transform="translate(-2.89 -2.84)"/><path class="cls-1" d="M54.63,139.55A17.58,17.58,0,0,1,53,144.39a13.12,13.12,0,0,1-2.84,3.71,12.17,12.17,0,0,1-4,2.4,14.14,14.14,0,0,1-5,.85,15.61,15.61,0,0,1-5.71-1,12.21,12.21,0,0,1-4.58-3.1,14.65,14.65,0,0,1-3-5.1A20.54,20.54,0,0,1,26.76,135a23.46,23.46,0,0,1,1-7.12,15.21,15.21,0,0,1,2.89-5.36,12.51,12.51,0,0,1,4.59-3.36,14.86,14.86,0,0,1,6-1.18,15.23,15.23,0,0,1,5.28.87,12.45,12.45,0,0,1,4.09,2.4,11.68,11.68,0,0,1,2.73,3.59,12.89,12.89,0,0,1,1.24,4.42H48.1a7.32,7.32,0,0,0-2.54-4.16,6.69,6.69,0,0,0-4.23-1.48,6.67,6.67,0,0,0-6,2.94q-1.93,2.94-1.93,8.06t1.9,8.11A6.41,6.41,0,0,0,41,145.66a6.75,6.75,0,0,0,4.68-1.58,8.26,8.26,0,0,0,2.42-4.53Z" transform="translate(-2.89 -2.84)"/><path class="cls-1" d="M67.23,150.87a13.23,13.23,0,0,1-5-.89,10.49,10.49,0,0,1-3.74-2.49,10.67,10.67,0,0,1-2.32-3.85,15.59,15.59,0,0,1,0-9.92,10.77,10.77,0,0,1,2.37-3.85,10.58,10.58,0,0,1,3.74-2.47,13.33,13.33,0,0,1,5-.87,13,13,0,0,1,4.89.87,10.57,10.57,0,0,1,3.69,2.44,10.7,10.7,0,0,1,2.35,3.83,14.58,14.58,0,0,1,.82,5,14.39,14.39,0,0,1-.82,5,11,11,0,0,1-2.35,3.83A10.45,10.45,0,0,1,72.09,150,13.19,13.19,0,0,1,67.23,150.87Zm0-5.12q5.59,0,5.59-7.05t-5.59-7q-5.6,0-5.59,7T67.23,145.75Z" transform="translate(-2.89 -2.84)"/><path class="cls-1" d="M108.07,150.26v-14a5.6,5.6,0,0,0-1-3.43,3.14,3.14,0,0,0-2.64-1.32,3.4,3.4,0,0,0-2.79,1.41,5.54,5.54,0,0,0-1.11,3.53v13.81H94.44V136.35a11.11,11.11,0,0,0-.19-2.3,3,3,0,0,0-.63-1.41,2.35,2.35,0,0,0-1.15-.73,6,6,0,0,0-1.69-.21q-3.72,0-3.72,4.51v14H81V127.14h5.74v3.38a6.89,6.89,0,0,1,2.82-3.15,8.57,8.57,0,0,1,3.95-.84,10.13,10.13,0,0,1,2.09.19,4.83,4.83,0,0,1,1.64.63,6.69,6.69,0,0,1,1.39,1.15,13.24,13.24,0,0,1,1.32,1.7,6.09,6.09,0,0,1,2.49-2.8,7.55,7.55,0,0,1,3.76-.87,8.5,8.5,0,0,1,3.19.59,7.25,7.25,0,0,1,2.49,1.64,7.79,7.79,0,0,1,1.62,2.47,7.59,7.59,0,0,1,.59,3v16Z" transform="translate(-2.89 -2.84)"/><path class="cls-1" d="M116.49,161.22V127.14h5.87l0,2.82a7,7,0,0,1,6.44-3.43,9.65,9.65,0,0,1,4,.84,8.89,8.89,0,0,1,3.17,2.45,12.15,12.15,0,0,1,2.07,3.9,18.47,18.47,0,0,1,.11,10,11.45,11.45,0,0,1-1.85,3.79,8.48,8.48,0,0,1-3,2.47,9.07,9.07,0,0,1-4,.86,8,8,0,0,1-6.86-3.61v14Zm10.9-15.56q5.27,0,5.26-7.15a8.24,8.24,0,0,0-1.45-5,4.5,4.5,0,0,0-3.76-2,4.55,4.55,0,0,0-3.69,1.83,7.4,7.4,0,0,0-1.48,4.8Q122.27,145.66,127.39,145.66Z" transform="translate(-2.89 -2.84)"/><path class="cls-1" d="M155.31,150.26a9,9,0,0,1-.38-2.06,7.67,7.67,0,0,1-2.87,2,11,11,0,0,1-4.13.72c-2.67,0-4.62-.58-5.85-1.76a6,6,0,0,1-1.86-4.58,8.42,8.42,0,0,1,.8-4,6,6,0,0,1,2.21-2.33,10.58,10.58,0,0,1,3.36-1.24c1.3-.27,2.72-.51,4.25-.73a8.16,8.16,0,0,0,3.1-.87,2.16,2.16,0,0,0-.25-3.53,5.57,5.57,0,0,0-2.85-.63,4.09,4.09,0,0,0-3,.94,4.45,4.45,0,0,0-1.15,2.49H141a10.45,10.45,0,0,1,.59-3.29,6.29,6.29,0,0,1,1.74-2.58,8,8,0,0,1,3.12-1.67,16.41,16.41,0,0,1,4.7-.59,15.19,15.19,0,0,1,4.63.61,7.6,7.6,0,0,1,3.06,1.76,6.79,6.79,0,0,1,1.67,2.87,13.61,13.61,0,0,1,.51,3.88v14.61Zm-.43-11.32a3.3,3.3,0,0,1-1.36.75,24.72,24.72,0,0,1-2.58.61,8.71,8.71,0,0,0-3.62,1.32,2.78,2.78,0,0,0-1,2.3c0,1.72,1,2.58,3,2.58a5.88,5.88,0,0,0,2.19-.4,5.33,5.33,0,0,0,1.74-1.08,5.46,5.46,0,0,0,1.17-1.59,4.42,4.42,0,0,0,.45-2Z" transform="translate(-2.89 -2.84)"/><path class="cls-1" d="M178.24,150.26v-14c0-1.79-.3-3-.89-3.62a4.09,4.09,0,0,0-3.06-.94q-4.74,0-4.74,5.31v13.25h-6.11V127.14h5.83v3.38a7.41,7.41,0,0,1,2.86-3,9.34,9.34,0,0,1,4.61-1,9.12,9.12,0,0,1,3,.49,6.56,6.56,0,0,1,2.42,1.48,7.05,7.05,0,0,1,1.6,2.42,8.74,8.74,0,0,1,.59,3.32v16Z" transform="translate(-2.89 -2.84)"/><path class="cls-1" d="M201.55,147.21a4.84,4.84,0,0,1-2.37,2.42,8.46,8.46,0,0,1-3.88.87,9.49,9.49,0,0,1-3.38-.59,7.6,7.6,0,0,1-2.68-1.69,7.84,7.84,0,0,1-1.76-2.63,8.82,8.82,0,0,1-.64-3.46v-15H193v14.1q0,4.32,3.9,4.32a4.74,4.74,0,0,0,3.41-1.22,4.08,4.08,0,0,0,1.29-3.1v-14.1h6.11v23.73a11.07,11.07,0,0,1-.82,4.38,9.42,9.42,0,0,1-2.25,3.24,10,10,0,0,1-3.39,2,12.16,12.16,0,0,1-4.16.71c-3.41,0-6-.87-7.66-2.59a9.7,9.7,0,0,1-2.54-7.1h5.69a4.36,4.36,0,0,0,1.2,3.25,5,5,0,0,0,3.59,1.17,3.78,3.78,0,0,0,1.6-.35,4.44,4.44,0,0,0,1.34-1,4.69,4.69,0,0,0,.94-1.57,5.77,5.77,0,0,0,.35-2.07Z" transform="translate(-2.89 -2.84)"/><path class="cls-1" d="M210,155.25a4.94,4.94,0,0,0,2.68-1.6,5.68,5.68,0,0,0,.94-3.39H210v-6.34h6.48v4.79a16.32,16.32,0,0,1-.33,3.48,6.93,6.93,0,0,1-1.08,2.56,6.11,6.11,0,0,1-2,1.77A10.67,10.67,0,0,1,210,157.6Z" transform="translate(-2.89 -2.84)"/><polyline class="cls-1" points="29.79 17.86 29.79 51.42 38.3 51.42 38.3 17.86 50.61 17.86 50.61 10.75 29.71 10.75"/><path class="cls-1" d="M24.67,3.65h5a0,0,0,0,1,0,0v7.11a0,0,0,0,1,0,0H17.56a0,0,0,0,1,0,0v0a7.11,7.11,0,0,1,7.11-7.11Z"/><path class="cls-1" d="M9.12,0h0a0,0,0,0,1,0,0V152.6a0,0,0,0,1,0,0H0a0,0,0,0,1,0,0V9.12A9.12,9.12,0,0,1,9.12,0Z"/></svg>